# xmcd CD database file
#
# Track frame offsets:
#	150
#	17962
#	31090
#	49987
#	67795
#	79187
#	97655
#	114352
#	128725
#	146502
#	166767
#	183940
#	196755
#	215835
#
# Disc length: 3071 seconds
#
# Revision: 0
# Processed by: cddbd v1.5PL3 Copyright (c) Steve Scherf et al.
# Submitted via: CDex 1.51
#
DISCID=b00bfd0e
DTITLE=Dixi Kids - Compact
DYEAR=1990
DGENRE=Jazz
TTITLE0=South rampart street parade
TTITLE1=Midnight in Moscow
TTITLE2=Mood indigo
TTITLE3=Everybody loves saterday-night
TTITLE4=Tiritomba
TTITLE5=Big butter and egg man
TTITLE6=Tin roof blues
TTITLE7=Eh La-bas
TTITLE8=At the Giorgia camp meeting
TTITLE9=Dixi Kids blues
TTITLE10=In a good old summertime
TTITLE11=Wild cat blues
TTITLE12=Just a closer walk with thee
TTITLE13=Charleston
EXTD=YEAR: 1990
EXTT0=
EXTT1=
EXTT2=
EXTT3=
EXTT4=
EXTT5=
EXTT6=
EXTT7=
EXTT8=
EXTT9=
EXTT10=
EXTT11=
EXTT12=
EXTT13=
PLAYORDER=
